<?xml version="1.0" encoding="utf-8"?>
<!-- Generator: Adobe Illustrator 19.2.1, SVG Export Plug-In . SVG Version: 6.00 Build 0)  -->
<svg version="1.1" id="layer" xmlns="http://www.w3.org/2000/svg" xmlns:xlink="http://www.w3.org/1999/xlink" x="0px" y="0px"
	 viewBox="0 0 652 652" style="enable-background:new 0 0 652 652;" xml:space="preserve">
<style type="text/css">
	.st0{fill:#F7A800;}
</style>
<path class="st0" d="M212.2,448.1l-16.6,19.7l-5.2-4.5l17.3-19c-2.8-2.4-4.8-4.8-7.3-7.3l3.8-3.8c6.6,6.2,12.5,11.1,19.4,17
	l-3.5,4.2C217.7,451.9,215,450.2,212.2,448.1 M179,399l-27,15.6c1,1.7,2.1,4.2,3.1,5.9l27-15.9C180.7,402.5,180,401.1,179,399
	 M196.3,423.9l-14.5,12.5l7.6-21.5c-1.4-1.7-2.1-3.1-3.5-4.8l-26.3,18c1,1.7,2.8,3.5,3.8,5.2l15.6-11.1l-7.3,21.8
	c1.4,1.4,2.4,3.8,4.5,5.2l24.2-20.8C199.1,427,197.3,425.6,196.3,423.9 M231.6,462.7c4.2,2.4,8.3,4.8,13.1,6.9l2.8-4.5
	c-6.6-3.5-12.5-7.3-18-10.7l-17.6,25.9c6.6,4.5,12.8,8.3,19.7,12.1l2.8-4.5l-14.2-8.3l4.8-6.9l9.3,5.5l2.8-4.5
	c-3.3-1.8-6.5-3.6-9.7-5.5L231.6,462.7L231.6,462.7z M319.5,365.4c-24.6,0-44.6-20.1-44.6-44.6s20.1-44.6,44.6-44.6
	c24.6,0,44.6,20.1,44.6,44.6S344,365.4,319.5,365.4 M320.1,350.9c16.3,0,29.8-13.5,29.8-29.8c0-13.5-9.3-25.3-22.5-28.7
	c0-1.4-0.7-7.6-0.7-7.6h-14.9c0,0-0.3,6.6-0.3,8c-12.3,3.7-20.8,15.1-20.8,28C290.7,337.4,303.9,350.9,320.1,350.9 M254.4,152.3
	v-1.4c0-8,5.9-14.9,14.2-15.2c8.6-0.7,16.3,5.5,17,14.2v1.4c0,8-6.2,14.9-14.5,15.6C263.1,167.5,255.4,161,254.4,152.3 M260.3,152
	c0.3,5.5,5.2,9.7,10.7,9c5.2-0.7,9.3-4.8,9.3-10c0.3-0.3,0-0.7,0-1c-0.3-5.5-5.2-9.3-10.7-9c-5.2,0.3-9.3,4.5-9,10v1L260.3,152
	L260.3,152z M325.3,159.6h-6.2l7.6-16.3l6.9-14.5l6.9,0.7l3.8,13.8l5.2,18.7c-2.4-0.3-4.2-0.7-6.6-1l-1.7-5.9c-4.3-0.7-8.7-1-13.2-1
	L325.3,159.6L325.3,159.6z M330.5,148.9c3.5,0,6.6,0.7,9.7,1l-1.7-6.6l-2.1-6.6l-3.1,6.6L330.5,148.9L330.5,148.9z M299.4,135
	l2.8,25.6l6.6-0.7l-2.8-25.3l10-0.7l-0.3-5.5c-11.4,0.7-15.9,1-27.3,2.8l0.7,5.5L299.4,135L299.4,135z M300.4,481l-2.4,19l-9-20.8
	c-2.1-0.3-3.5-1-5.5-1.4l-7.3,30.8c2.1,0.7,4.5,0.7,6.6,1.4l3.8-19l9.3,21.1c2.1,0.3,4.5,1,6.9,1l3.5-31.8
	C304.6,481,302.5,481.3,300.4,481 M481.7,414.6l-22.8-12.5l-2.8,5.2l27.3,15.2l10.7-19l-4.8-2.4L481.7,414.6L481.7,414.6z
	 M447.1,419.4l31.1,10.4c-0.7,1-1.4,1.7-2.1,2.8c-0.7,0.7-1,1.4-1.7,2.4l-5.5-2.1l-8.6,10.7l3.1,4.8c-1.4,1.4-2.8,3.1-4.1,4.5
	l-12.5-20.4l-4.5-7.6L447.1,419.4L447.1,419.4z M450.6,426.3l3.8,5.9l3.5,5.9l4.5-5.9l1-1.4L450.6,426.3L450.6,426.3z M417.7,468.2
	c1.4,2.4,2.1,5.2,2.1,8c0,2.1-0.3,4.5-1.4,6.2c-1.4,2.8-3.5,5.5-6.6,7.3c-7.3,4.2-16.9,1.7-21.1-5.9c0-0.3-0.3-1-0.7-1.4
	c-1-2.1-1.4-4.2-1.4-6.2c0.3-5.5,2.8-10.7,8-13.5C403.9,458.2,413.6,460.6,417.7,468.2 M414.3,475.8c0-1.7-0.3-3.5-1.4-5.2
	c-2.8-4.8-8.6-6.2-13.5-3.8c-3.5,1.7-5.2,5.2-5.2,8.7c0,1.7,0.3,3.5,1.4,4.8c0.3,0.3,0.7,1,1,1.4c3.1,3.5,8.3,4.5,12.5,2.1
	c1-0.7,2.1-1.4,2.8-2.1C413.6,480.7,414.3,478.2,414.3,475.8 M429.5,438.8l13.2,13.8l-21.8-6.6c-1.7,1.4-3.1,1.7-4.5,3.1l19,25.6
	c1.7-1.4,3.5-2.8,4.8-4.2l-11.4-15.2l22.1,6.6c1.4-1.4,3.8-2.8,5.2-4.5l-21.8-23.2C432.3,435.7,430.9,437.4,429.5,438.8
	 M568.9,321.2c0,2.8,0,5.9-0.3,8.3v0.7l-0.7,0.3c-10.7,6.2-24.2,10-38.1,10.4c-0.3,1.7-1.7,14.2-2.1,15.9
	c12.8,3.8,25.3,10.7,33.9,19.7l0.3,0.7v0.7c-0.7,4.8-2.4,11.4-4.2,15.6l-0.3,0.7h-0.7c-12.1,3.5-26.3,3.5-39.1,0
	c-0.7,1.7-5.5,13.1-5.9,14.9c11.4,7.3,21.5,17.3,27.3,27.7l0.3,0.7l-0.3,0.7c-1.7,4.1-5.2,10.4-8.3,14.2l-0.3,0.7h-0.7
	c-12.1,0-26-3.5-37.7-10c-1,1.4-9,12.1-10,13.5c9.3,9.7,16.6,22.1,19.4,34.3l0.3,0.7l-0.3,0.3c-2.8,3.8-7.6,8.7-11.4,11.4l-0.3,0.3
	l-1-0.3c-11.8-3.1-24.2-10.4-33.9-19.7c-1.4,1-11.4,8.6-12.8,10c6.2,11.4,10,24.9,10,37v1.7l-0.7,0.3c-3.8,2.8-9.7,6.6-14.2,8.3
	l-0.3,0.3l-0.7-0.3c-10.7-6.2-20.8-16.3-27.7-27.7c-1.7,0.7-13.8,5.9-15.2,6.6c1.7,6.6,2.8,13.1,2.8,19.7c0,6.6-1,13.5-2.8,19.4v0.7
	l-0.7,0.3c-4.1,1.7-10.7,3.5-15.6,4.2h-0.7l-0.3-0.3c-9-8.7-16.3-21.1-19.7-33.9c-1.7,0-14.2,1.7-15.9,2.1
	c-0.3,13.5-3.8,27.3-10.4,38.1l-0.3,0.7h-0.7c-4.2,0.7-11.4,0.7-15.9,0h-0.7l-0.3-0.7c-6.2-10.7-10-24.2-10.4-38.1
	c-1.7-0.3-14.9-2.1-16.9-2.1c-3.5,12.8-10.7,25.3-19.4,33.9l-0.3,0.3h-0.7c-4.8-0.7-11.4-2.8-15.6-4.5l-0.3-0.3l-0.3-0.7
	c-1.7-5.9-2.8-12.8-2.8-19.7c0-6.6,1-13.1,2.8-19.7c-1.7-0.7-13.1-5.2-14.5-6.2c-6.9,11.8-17.3,21.8-28,28l-0.7,0.3l-0.7-0.3
	c-4.5-2.1-10.4-5.2-14.2-8.3l-0.3-0.3v-1.4c0-12.1,3.8-25.6,10-37.4c-1.4-1-12.1-9-13.5-10.4c-9.7,9.3-22.1,16.3-33.9,19.4l-0.7,0.3
	l-0.7-0.3c-3.8-3.1-8.3-7.6-11.4-11.4l-0.3-0.7l0.3-0.7c3.1-12.1,10.4-24.2,19.7-33.9c-1-1.4-9-11.8-10.4-13.5
	c-11.8,6.6-25.6,10.4-37.7,10h-0.7l-0.3-0.3c-2.8-3.8-6.2-9.7-8.3-14.2l-0.3-0.7l0.3-0.7c6.2-10.7,16.3-20.8,27.7-27.7
	c-0.7-1.7-5.5-13.5-6.6-14.9c-13.1,3.1-27.3,3.5-39.1,0l-0.7-0.3l-0.3-0.7c-1.7-4.2-3.5-10.7-4.2-15.6v-0.7l0.3-0.7
	c8.6-9,21.1-15.9,33.9-19.7c0-1.7-2.1-14.9-2.4-17c-13.5-0.3-27.3-3.8-38.1-10l-0.7-0.3v-0.7c-0.3-2.1-0.3-5.2-0.3-8s0-5.5,0.3-8
	v-0.7l0.7-0.3c10.7-6.2,24.6-10,38.1-10c0.3-1.7,2.1-14.5,2.1-16.3c-12.8-3.8-25.3-10.7-33.9-19.7l-0.3-0.3v-0.7
	c0.7-4.8,2.4-11.4,4.2-15.6l0.3-0.7l0.7-0.3c11.8-3.5,26-3.5,39.1,0c0.7-1.7,5.5-13.1,6.2-14.9c-11.8-6.9-21.8-17-27.7-27.7
	l-0.3-0.7l0.3-0.7c2.1-4.2,5.2-10,8-13.8l0.3-0.7h0.7c12.5-0.3,26,3.5,37.7,10c1-1.4,9-12.1,10.4-13.5c-9.3-9.7-16.6-22.1-19.4-34.3
	v-0.7l0.3-0.7c3.1-3.8,8-8.6,11.8-11.4l0.7-0.3h0.7c12.1,3.1,24.6,10.4,33.9,19.7c1.4-1,11.1-8.6,12.5-9.7
	c-6.6-11.4-10.4-24.9-10.4-37v-1.7l0.7-0.3c3.5-2.8,9.7-6.2,13.8-8l0.3-0.3l0.7,0.3c10.7,5.9,20.8,16.3,27.7,27.7
	c1.7-0.7,14.2-5.9,15.9-6.6c-1.7-6.6-2.8-13.1-2.4-19.7c0-6.9,0.7-13.5,2.8-19.4v-0.7h0.7c4.2-1.7,10.7-3.5,15.6-4.2h0.7l0.7,0.3
	c9,8.7,15.9,21.1,19.7,33.9c1.7-0.3,14.9-1.7,16.6-2.1c0.3-13.5,3.8-27.3,10.4-37.7l0.3-0.7l0.7-0.3c4.8-0.7,11.8-0.7,16.3,0
	l0.7,0.3l0.3,0.7c6.6,10.7,10,24.2,10,37.7c2.1,0.3,14.9,2.1,16.6,2.4c3.8-13.1,10.7-25.3,19.7-33.9l0.3-0.3l0.7,0.3
	c4.8,0.7,11.4,2.4,15.6,4.2l0.7,0.3l0.3,0.7c1.8,6.3,2.8,12.8,2.8,19.4c0,6.6-1,13.5-2.8,19.7c1.7,0.7,14.2,5.9,15.9,6.6
	c6.9-11.4,16.9-21.5,27.7-27.7l0.7-0.3l0.7,0.3c4.2,1.7,10.4,5.2,13.8,8.3l0.7,0.3v1.7c0,12.1-3.8,25.6-10,37
	c1.4,1,11.8,9,13.1,10.4c9.7-9.3,22.1-16.6,34.3-19.7l0.7-0.3l0.7,0.7c3.8,2.8,8.7,8,11.4,11.4l0.3,0.7l-0.3,0.7
	c-3.1,12.1-10.4,24.6-19.7,33.9c1,1.4,8.7,11.8,10,13.1c12.1-6.6,25.6-10,38.1-10h0.7l0.3,0.7c3.1,3.8,6.6,9.7,8,13.8l0.3,0.7
	l-0.3,0.7C535,217,525,227,513.6,234c0.7,1.7,5.5,13.5,6.2,14.9c12.8-3.1,27.3-3.5,39.1,0h0.7l0.3,0.7c1.7,4.1,3.5,10.7,4.1,15.6
	v0.7l-0.3,0.3c-8.7,9-21.1,15.9-33.9,19.7c0.3,1.7,1.7,14.5,2.1,16.3c13.8,0.3,27.3,3.8,38.1,10.4l0.7,0.3v0.7
	C568.6,315.3,568.9,318,568.9,321.2 M194.6,175.8l20.4,22.8c2.8,3.1,5.9,2.8,10-0.7c26-20.4,59.2-32.2,94.5-32.2
	c35.3,0,68.5,12.1,94.8,32.2c4.2,3.1,7.3,3.5,10,0.7l20.4-22.8c2.4-2.4,2.4-5.9-2.1-9.7c-34.3-26.6-76.8-43.2-123.2-43.2
	s-89.3,16.6-122.8,43.2C192.1,170,192.1,173.4,194.6,175.8 M195.9,271.7c-2.4-1.4-4.5-3.1-6.6-2.4c-1.7,0.3-2.8,2.1-3.5,4.8
	c-9.7,32.9-9.7,60.9,0,93.4c0.7,2.1,1.4,4.2,3.5,4.8c1.7,0.7,3.8,0,6.9-2.1l63.3-43.2c2.4-1.7,3.8-3.8,3.8-6.2
	c0-2.4-1.4-4.5-3.8-6.2L195.9,271.7L195.9,271.7z M209.8,234c0.3,2.4,2.8,3.5,5.2,4.5l69.2,33.6c2.8,1.4,5.2,1.4,7.3,0.3
	c2.1-1.4,3.1-3.5,3.5-6.6l5.5-76.5c0.3-3.8-0.3-5.9-1.4-6.9c-1.4-1.4-3.5-1-5.5-0.7c-33.2,8-57.1,21.8-81,46.7
	C210.1,230.5,209.4,232.6,209.8,234 M210.8,409c0,1.4,1,3.1,2.4,4.8c23.9,24.9,47.7,38.8,81,46.7c2.1,0.7,4.2,1,5.5-0.3
	c1.4-1,2.1-3.5,1.7-6.9l-5.5-76.8c-0.3-2.8-1.4-5.2-3.5-6.2c-2.1-1-4.5-1-7.3,0l-68.9,33.6c-2.4,1-4.8,2.4-5.5,4.5
	C210.8,408.3,210.8,408.7,210.8,409 M319.5,370.3c27.3,0,49.5-22.1,49.5-49.5s-22.1-49.5-49.5-49.5S270,293.5,270,320.8
	C270,348.1,292.1,370.3,319.5,370.3 M340.6,459.2c1,1,3.1,1,5.9,0.3c32.9-8,57.1-21.8,80.6-46.7c1.4-1.7,3.1-3.5,2.4-5.2
	c-0.3-1.7-2.1-3.5-5.2-4.8l-69.2-33.6c-2.8-1.4-5.2-1.4-7.3,0c-2.1,1.4-3.1,3.5-3.5,6.6l-5.5,76.5
	C339.2,454.7,338.8,457.5,340.6,459.2 M443.7,369.9c2.1,1.4,4.5,3.1,6.6,2.1c1.4-0.3,2.8-2.1,3.5-4.8c9.7-32.9,9.7-60.9,0-93.4
	c-0.7-2.1-1.4-4.2-3.1-4.8c-1.7-0.7-3.8,0-6.9,2.1l-63.3,43.2c-2.4,1.7-3.8,3.8-3.8,6.2c0,2.4,1.4,4.5,3.8,6.2L443.7,369.9
	L443.7,369.9z M429.5,232.6c0-1.4-0.7-3.1-2.4-4.8c-23.5-24.9-47.8-38.8-81-46.7c-1.7-0.3-4.2-1-5.5,0.3c-1.4,1-2.1,3.5-1.7,6.9
	l5.5,76.8c0.3,2.8,1.4,5.2,3.5,6.2c2.1,1,4.8,1,7.3-0.3l69.2-33.2c2.1-1,4.8-2.1,5.2-4.5C429.5,233.3,429.8,232.9,429.5,232.6
	 M134.4,369.6l29.4-8.7c2.8-0.7,5.2-3.8,4.8-7.3c-10.7-54.7,2.8-99.3,34.9-134.9c3.1-2.4,3.5-6.9,0.3-10.4l-21.4-21.5
	c-2.1-2.4-5.9-2.4-9,1c-40.8,43.2-61.6,109.3-46.4,177.2C128.1,368.2,130.5,370.6,134.4,369.6 M500.1,385.5l-29.4-10
	c-1.4-0.7-5.5-0.7-7.6,4.5c-23.9,57.1-79.2,96.2-143.6,96.2c-64.4,0-120.8-40.1-143.6-97.2c-1.7-4.2-5.9-4.2-7.3-3.8l-29.4,10
	c-3.1,1-5.2,3.8-3.5,8c28.7,73.4,100.3,125.3,183.7,125.3c83.4,0,155.4-52.2,184.1-125.6C505.3,389.3,503.5,386.6,500.1,385.5
	 M466.2,188c-2.8-3.5-7.6-3.1-9-0.7l-21.4,21.5c-3.1,3.1-2.8,8,0.3,10.4C468.2,254.7,481.7,299,471,354c-0.3,3.5,2.1,6.6,4.8,7.3
	l29.4,8.6c3.8,1,6.6-1.4,7.3-4.5C528.1,297.3,507.3,230.9,466.2,188 M397.3,179.7l6.9-13.1l18.3-8.3c-2.1-1.4-4.2-2.4-5.9-3.5
	l-12.5,5.9l-2.4-13.8c-2.8-1.4-4.2-1.7-6.9-2.8l3.8,20.1l-6.9,12.8L397.3,179.7L397.3,179.7z M363.1,476.2c-9,2.1-16.3,3.8-25.3,5.2
	l0.7,5.2c3.5-0.7,6.6-1,10-1.4l4.5,25.3l6.6-1.4l-5.5-25.3c3.5-0.7,6.6-1.7,10-2.4L363.1,476.2L363.1,476.2z M273.5,480.7v1.7
	c-0.3,4.2-3.5,8.3-8,9l1,14.5c-2.4-0.4-4.7-1.1-6.9-2.1l-0.3-13.8l-6.2-2.8l-4.8,12.1c-2.1-0.7-4.2-1.4-5.9-2.4l6.2-14.9l0.7-1.7
	l5.2-12.1l14.2,5.5C271.7,475.1,273.1,477.9,273.5,480.7 M267.6,480.7c-0.3-1-0.7-1.7-1.7-2.1l-8-2.8l-1.7,4.8l-0.7,1.7l7.3,2.8
	c2.1,1,3.8-1,4.5-2.8C267.6,482.1,267.9,481.4,267.6,480.7 M363.1,165.5c-2.4-0.7-4.5-1-7.3-1.7l5.2-17.3l3.8-12.5
	c5.5,1.4,10.4,3.1,15.6,4.8c2.8,1,4.5,4.2,4.8,7.6c0.3,4.8-2.1,10-6.9,11.1l1.7,13.8c-2.1-1-3.8-1.7-6.2-2.8l-1.7-12.1l-5.9-1.7
	L363.1,165.5L363.1,165.5z M367.2,148.9l6.9,2.4c2.1,0.7,4.5-2.4,4.5-5.2c0-1.4-0.3-2.4-2.1-2.8c-2.8-1-4.5-1.4-7.3-2.1l-1.4,4.8
	L367.2,148.9L367.2,148.9z M333.3,495.5l6.9,16.6c-2.1,0-4.1,0.3-6.2,0.7l-2.1-5.2l-13.5,0.3l-1.4,5.5c-2.1-0.3-4.2-0.3-6.2-0.3
	l5.9-17.3l4.2-13.1l0.3-0.3l6.9-0.3l0.3,0.7L333.3,495.5L333.3,495.5z M329.1,501.4l-2.4-5.9l-2.4-6.6l-2.1,6.6l-2.1,6.2
	L329.1,501.4L329.1,501.4z M370.7,473.4l10.4,29.8l6.2-2.1l-10-29.4C374.5,472.4,373.1,472.7,370.7,473.4 M219.8,161l-1.7-3.1
	c4.5-2.8,9.3-5.5,14.2-8c5.5-3.1,13.5,4.5,12.8,11.1c0,1-0.3,2.4-1,3.5l11.4,8.3c-2.1,1-3.8,1.7-6.2,3.1l-10-7.3l-5.5,3.1l5.9,9.7
	c-2.4,1.4-3.8,2.4-6.2,3.8L219.8,161L219.8,161z M226.7,159.2l0.7,1.4l3.1,5.5l6.6-3.5c0.7-0.3,1-1,1-2.1c0-3.1-2.1-6.9-5.2-5.2
	C230.9,156.8,229.5,157.8,226.7,159.2"/>
</svg>
